PathFileType	4	(X/Y/Z)	RBDS022\RBDS022runT35.trc
DataRate	CameraRate	NumFrames	NumMarkers	Units	OrigDataRate	OrigDataStartFrame	OrigNumFrames
150.000000	150.000000	4	33	mm	150.000000	2812	4500
Frame#	Time	L.ASIS			L.Heel.Bottom			L.Heel.Lateral			L.Heel.Top			L.Iliac.Crest			L.MT1			L.MT5			L.PSIS			L.Shank.Bottom.Lateral			L.Shank.Bottom.Medial			L.Shank.Top.Lateral			L.Shank.Top.Medial			L.Thigh.Bottom.Lateral			L.Thigh.Bottom.Medial			L.Thigh.Top.Lateral			L.Thigh.Top.Medial			R.ASIS			R.ASY			R.Heel.Bottom			R.Heel.Lateral			R.Heel.Top			R.Iliac.Crest			R.MT1			R.MT5			R.PSIS			R.Shank.Bottom.Lateral			R.Shank.Bottom.Medial			R.Shank.Top.Lateral			R.Shank.Top.Medial			R.Thigh.Bottom.Lateral			R.Thigh.Bottom.Medial			R.Thigh.Top.Lateral			R.Thigh.Top.Medial			
		X1	Y1	Z1	X2	Y2	Z2	X3	Y3	Z3	X4	Y4	Z4	X5	Y5	Z5	X6	Y6	Z6	X7	Y7	Z7	X8	Y8	Z8	X9	Y9	Z9	X10	Y10	Z10	X11	Y11	Z11	X12	Y12	Z12	X13	Y13	Z13	X14	Y14	Z14	X15	Y15	Z15	X16	Y16	Z16	X17	Y17	Z17	X18	Y18	Z18	X19	Y19	Z19	X20	Y20	Z20	X21	Y21	Z21	X22	Y22	Z22	X23	Y23	Z23	X24	Y24	Z24	X25	Y25	Z25	X26	Y26	Z26	X27	Y27	Z27	X28	Y28	Z28	X29	Y29	Z29	X30	Y30	Z30	X31	Y31	Z31	X32	Y32	Z32	X33	Y33	Z33	

2813	18.74666666666667	2189.786820045188	942.7356656309435	889.1631404467558	2105.580301012787	26.36873337212201	1012.273082122715	2134.745673068752	49.69625913205051	966.3231267288625	2116.913442077932	71.36535892435091	1015.662128428447	2098.954240598947	1013.369378713224	857.4258932864753	2328.971646928301	40.48256677059923	1036.926432511837	2287.086578873183	34.42857685122709	925.7499965520916	2032.562523228279	966.5074543655513	987.7549310554542	2192.359301284743	160.0538844041966	937.6859294803833	2150.930781520482	175.447078050488	971.375140051608	2198.509791000716	236.5165786571485	912.6778946905848	2159.714359623867	252.0659282178234	946.8857435498027	2236.376893090859	583.734349030599	864.9238137194933	2176.221607186695	564.0893217300138	901.403130721784	2188.034613216285	678.5429245862547	837.8819686044194	2132.294701413175	660.9530965120562	875.1853242800171	2219.679025597162	927.0784535272567	1125.834765198802	1745.728221730677	278.9187656651504	1084.487735896442	1690.635607224683	459.5646511241418	1035.950056074103	1708.625979411679	439.6944974153815	1087.778174091416	1733.582682785789	451.7740705960521	1039.881206350573	2174.321311062221	991.8473520347546	1171.773101509154	1702.169382840275	244.5900074113085	1042.561970086486	1693.396661068322	289.339635406016	1147.248183703573	2051.573037357297	963.5307345559834	1070.673343138084	1821.061196237336	420.4731793506472	1116.801301471445	1824.27427107065	453.4217620644714	1077.582948469932	1902.534026638479	435.3701588926675	1134.347527251943	1901.079700305202	471.7769079175377	1095.651094779594	2164.510536776135	537.8115556031202	1169.940374127326	2103.368052720384	539.202326603088	1133.244949549459	2155.864590307498	646.7904365970443	1188.741157732745	2093.735462088217	646.1086754465974	1159.088816636996	
2814	18.75333333333333	2187.855327732001	939.0225835742148	887.991926480654	2082.526992246912	27.04562867919992	1012.4231383949	2111.838471998507	50.53902255921416	966.6289677115769	2094.30713461382	71.98008490664934	1016.163590488561	2095.840606072516	1008.812317978685	857.50479362974	2306.181210745681	39.64920270014965	1037.230425965212	2263.961694550359	34.87773969849518	925.786783902587	2031.154429542476	963.5936274274779	988.659415766545	2174.333569962412	159.5215604403534	938.6487392990172	2133.131245321834	176.7625334358208	971.8200775029637	2183.766392463489	235.6689821593302	913.3072136106676	2145.465020515657	252.9286944225318	947.2319047144279	2231.531078192924	579.860418437895	864.5640533948824	2171.240829353425	560.9486756088917	901.2305234660076	2184.200854948573	675.0744955041012	837.3234382517311	2128.272385820652	658.1709586277575	874.7188664278722	2218.766609740262	922.7204087420446	1124.699766787097	1760.946933992723	277.6969188678291	1086.26829796974	1703.926081057753	457.6261679171409	1038.196026543946	1722.793452302886	438.1697846504665	1089.866191753069	1747.005967430552	450.1879333147686	1041.668887169433	2175.11559656582	986.15221206813	1171.938463921789	1717.110489910966	242.7500257355476	1045.299725691734	1709.483145601795	287.8709292707535	1149.949005602295	2050.395314635797	960.3875400754728	1071.190740049367	1835.772557400529	418.9850781227547	1118.373914178118	1839.187812102109	451.7992162030115	1079.059434632281	1917.38442122882	433.3710551567013	1135.769140387291	1916.160856554825	469.6417276971953	1096.90592019152	2175.093768415178	535.2198908103059	1171.259146359762	2113.673008979189	534.1054790929481	1135.102508364841	2162.793217867519	643.9377371059716	1189.352766551245	2100.509897997949	640.8300468971936	1160.357154437185	
2815	18.76	2186.1082512852	935.7241820681243	886.9821366275507	2059.545196863001	27.6080915381769	1012.605622510171	2088.899577605694	51.26610933624315	966.9119153004312	2071.570516630964	72.49648414283207	1016.586204831713	2093.440559779679	1005.009936454337	857.3142938948483	2283.237347987059	39.46163355227549	1037.438627109423	2240.761168319006	35.5871314722747	925.8338800399629	2029.829364361779	961.410000360034	989.1685484455904	2155.633532049273	159.1073860602688	939.505477197681	2114.782342711994	178.046106672761	972.2763355498014	2168.105180805773	234.8304935731099	913.9274871945449	2130.383440466344	253.6674198284442	947.629990166015	2225.606028738361	576.0915754131831	864.3745042693153	2165.080719054927	558.1486255932446	901.1462243875927	2179.71858735149	671.8769716530763	836.9145812955098	2123.495017751171	655.8928880530283	874.3389044455187	2217.698068752702	918.9197016165232	1123.644844090766	1777.369458973885	275.015827901015	1088.016711817609	1717.05271080552	453.7080407529858	1040.641983246365	1736.946437635992	434.8058756497274	1092.088262541286	1760.300703217601	446.9487323426383	1043.550409946905	2175.578298927274	981.3929168152686	1171.972856376045	1733.516829300715	239.2065635054504	1047.970189854476	1726.714475331667	284.4983471116765	1152.632991176253	2049.169778408437	957.9665275858525	1071.442301744787	1850.644280410819	416.4772325725276	1120.009687931331	1854.016764423902	449.2313487328237	1080.640199604243	1932.307828754859	430.8878502587841	1137.236215158468	1931.032570951752	467.0777270188348	1098.273972527712	2185.929822446456	533.7418391765109	1172.589497559291	2124.231436262254	530.0260796743319	1137.137704328196	2169.901357234273	642.0490162836037	1189.97287302084	2107.484835204749	636.4252343991128	1161.817292528525	
2816	18.76666666666667	2184.570535381455	932.912315805315	886.1535712164801	2036.576528224059	28.0948012031608	1012.824984425729	2065.90773132174	51.89070366634088	967.1812997113457	2048.70678162496	72.95405484114178	1016.942524961786	2091.804331572751	1002.082165384446	856.8787450603826	2260.165070909567	39.64046834404549	1037.60132239009	2217.49458116426	36.36173227872342	925.9212979725451	2028.602942926026	959.9550307582108	989.2986365748794	2136.292207999055	158.7910840306465	940.2428045660549	2095.890957409118	179.2629065934149	972.7236277808663	2151.541869207845	234.0018546695786	914.5181273341817	2114.45303063374	254.2752039869956	948.0489373279155	2218.606131466045	572.4940508486934	864.3713650112439	2157.750257939909	555.7511540590463	901.1557816550929	2174.586267918486	669.0028063679362	836.6754730863396	2117.977171382477	654.167375737085	874.0698145917283	2216.507392881512	915.7870722686074	1122.722882716947	1794.906280079018	270.9403415975597	1089.737393330405	1730.009531498532	447.8568568268945	1043.244387965151	1751.033943990151	429.6383676659001	1094.409206894409	1773.43485416965	442.1006629039775	1045.511587353505	2175.576520556104	977.6686715682149	1171.89624598309	1751.32745855941	234.0500619845359	1050.52219807148	1744.973607059808	279.3106296961826	1155.249469908014	2047.916340994475	956.2402823682877	1071.440658968461	1865.589819900138	412.9993265328416	1121.691596840461	1868.659640135623	445.7681734160531	1082.310429351233	1947.204951755851	427.9943734112597	1138.724639298168	1945.582026641315	464.1581657874459	1099.737862470457	2196.914514385899	533.4436203190132	1173.87650943659	2134.989684053104	527.0636633591894	1139.220944249098	2177.104723780071	641.1836552221237	1190.568964317859	2114.611414384318	632.9803609626347	1163.3653296775	
